# xmcd
# 
# Track frame offsets:
#     150
#     12527
#     27340
#     40947
#     52570
#     63540
#     75870
#     89692
#     103992
#     117670
#     131145
#     149677
#     167430
#     182630
#     196540
#     213770
# 
# Disc length: 3040
# 
# Revision: 1
# Processed by: cddbd v1.5.2PL0 Copyright (c) Steve Scherf et al.
# Submitted via: fre:ac v1.0.17
# 
DISCID=da0bde10
DTITLE=hellen merril - hellen merril
DYEAR=0
DGENRE=Jazz
TTITLE0=you'd be so nice to come home to
TTITLE1=summertime in venice
TTITLE2=fly my to the moon
TTITLE3=autumn leaves
TTITLE4=my funny valentine
TTITLE5=pennies from heaven
TTITLE6=the boy from ipanema
TTITLE7=mack the knife
TTITLE8=romance
TTITLE9=plaisir d'amor
TTITLE10=yeah lei shang
TTITLE11=september song
TTITLE12=no other love
TTITLE13=la chanson d'orphee
TTITLE14=charade
TTITLE15=goodbye
EXTD=
EXTT0=
EXTT1=
EXTT2=
EXTT3=
EXTT4=
EXTT5=
EXTT6=
EXTT7=
EXTT8=
EXTT9=
EXTT10=
EXTT11=
EXTT12=
EXTT13=
EXTT14=
EXTT15=
PLAYORDER=
